<?xml version="1.0" standalone="no"?>
<!DOCTYPE svg PUBLIC "-//W3C//DTD SVG 20010904//EN"
 "http://www.w3.org/TR/2001/REC-SVG-20010904/DTD/svg10.dtd">
<svg version="1.0" xmlns="http://www.w3.org/2000/svg"
 width="700.000000pt" height="700.000000pt" viewBox="0 0 700.000000 700.000000"
 preserveAspectRatio="xMidYMid meet">
<metadata>
Created by potrace 1.11, written by Peter Selinger 2001-2013
</metadata>
<g transform="translate(0.000000,700.000000) scale(0.100000,-0.100000)"
fill="#000000" stroke="none">
<path d="M501 6980 c-220 -54 -399 -222 -473 -445 l-23 -70 0 -2965 0 -2965
28 -82 c56 -163 177 -305 322 -378 67 -34 97 -45 190 -65 23 -5 1294 -9 2955
-9 2525 -1 2924 1 2984 14 183 39 361 178 443 345 79 163 73 -122 70 3170 l-2
2945 -23 65 c-22 60 -68 152 -95 188 -7 9 -42 46 -79 83 -72 72 -154 123 -258
161 l-65 23 -2950 2 c-2827 2 -2953 1 -3024 -17z"/>
</g>
</svg>
