<?xml version="1.0" standalone="no"?>
<!DOCTYPE svg PUBLIC "-//W3C//DTD SVG 20010904//EN"
 "http://www.w3.org/TR/2001/REC-SVG-20010904/DTD/svg10.dtd">
<svg version="1.0" xmlns="http://www.w3.org/2000/svg"
 width="944.000000pt" height="944.000000pt" viewBox="0 0 944.000000 944.000000"
 preserveAspectRatio="xMidYMid meet">
<metadata>
Created by potrace 1.11, written by Peter Selinger 2001-2013
</metadata>
<g transform="translate(0.000000,944.000000) scale(0.100000,-0.100000)"
fill="#000000" stroke="none">
<path d="M1060 9433 c-349 -59 -620 -332 -691 -694 -19 -98 -19 -184 -19
-4019 0 -3835 0 -3921 19 -4019 64 -327 293 -585 598 -673 l78 -23 3680 0
3680 0 78 23 c305 88 534 346 598 673 19 98 19 184 19 4019 0 3835 0 3921 -19
4019 -63 324 -287 578 -593 673 l-73 23 -3665 1 c-2016 1 -3676 -1 -3690 -3z
m5077 -827 c658 -93 1272 -463 1689 -1017 257 -342 429 -729 513 -1155 37
-186 39 -203 51 -403 38 -639 -129 -1263 -477 -1789 -211 -318 -481 -583 -813
-795 -92 -60 -324 -174 -445 -220 -476 -181 -1048 -208 -1520 -71 -318 92
-600 233 -849 423 l-59 45 -36 -41 c-35 -40 -367 -398 -445 -480 -37 -39 -38
-44 -24 -60 20 -23 58 -145 58 -187 0 -48 -25 -131 -55 -182 -15 -25 -88 -111
-164 -192 -76 -81 -286 -307 -467 -503 -181 -196 -520 -562 -754 -814 -234
-252 -450 -485 -480 -518 l-55 -60 -180 195 c-99 107 -290 313 -425 457 -135
145 -246 266 -247 270 -2 3 129 148 290 322 160 174 427 462 591 640 165 178
363 392 441 474 77 83 225 241 328 353 103 111 202 216 221 232 91 80 233 105
346 61 l55 -21 24 27 c13 16 128 140 255 276 127 137 232 252 234 256 1 5 -36
68 -83 141 -264 411 -407 836 -455 1355 -25 270 1 597 72 895 127 536 378 992
752 1366 287 286 618 493 991 619 137 46 338 91 470 105 61 6 119 13 130 15
49 9 421 -5 522 -19z"/>
<path d="M5569 7919 c-101 -15 -278 -59 -373 -93 -599 -217 -1072 -769 -1237
-1442 -102 -417 -77 -892 67 -1297 137 -384 421 -765 737 -988 369 -260 797
-369 1241 -314 219 26 413 89 621 199 178 94 323 205 475 362 359 371 572 882
596 1434 14 299 -52 657 -173 939 -57 133 -73 165 -141 276 -311 512 -812 846
-1385 924 -90 13 -345 13 -428 0z"/>
</g>
</svg>
