<?xml version="1.0" encoding="utf-8"?>
<!-- Generator: Adobe Illustrator 16.0.0, SVG Export Plug-In . SVG Version: 6.00 Build 0)  -->
<!DOCTYPE svg PUBLIC "-//W3C//DTD SVG 1.1//EN" "http://www.w3.org/Graphics/SVG/1.1/DTD/svg11.dtd">
<svg version="1.1" id="Layer_1" xmlns="http://www.w3.org/2000/svg" xmlns:xlink="http://www.w3.org/1999/xlink" x="0px" y="0px"
	 width="266px" height="78px" viewBox="0 0 266 78" enable-background="new 0 0 266 78" xml:space="preserve">
<path fill="#48525B" d="M261,58c0,8.3-6.7,15-15,15H19c-8.3,0-15-6.7-15-15V21c0-8.3,6.7-15,15-15h227c8.3,0,15,6.7,15,15V58z"/>
<path fill="none" stroke="#415168" stroke-miterlimit="10" d="M261.5,57.5c0,8.3-6.7,15-15,15h-227c-8.3,0-15-6.7-15-15v-37
	c0-8.3,6.7-15,15-15h227c8.3,0,15,6.7,15,15V57.5z"/>
<g>
	<path fill="#FDBE00" d="M34.7,14.8h17c4.4,0,8.3,0.9,11.7,2.7s6.1,4.4,8,7.9c1.9,3.4,2.9,7.5,2.9,12.2c0,4.7-1,8.7-2.9,12.2
		c-1.9,3.4-4.6,6-8,7.9c-3.4,1.8-7.3,2.7-11.7,2.7h-17V14.8z M51.7,53.5c4.6,0,8.2-1.4,10.6-4.3c2.4-2.8,3.6-6.7,3.6-11.7
		s-1.2-8.9-3.6-11.7c-2.4-2.8-6-4.3-10.6-4.3h-9.4v32H51.7z"/>
	<path fill="#FDBE00" d="M85.8,58.7c-2.5-1.5-4.4-3.5-5.7-6.101c-1.3-2.6-2-5.399-2-8.5c0-3.1,0.7-5.899,2-8.399
		c1.3-2.6,3.2-4.6,5.7-6.1s5.4-2.2,8.7-2.2c3.4,0,6.3,0.7,8.8,2.2s4.4,3.5,5.7,6.1c1.3,2.6,2,5.399,2,8.399c0,3.101-0.6,5.9-2,8.5
		c-1.3,2.601-3.2,4.601-5.7,6.101s-5.4,2.2-8.8,2.2C91.2,61,88.3,60.2,85.8,58.7z M101.1,52c1.6-1.9,2.4-4.5,2.4-7.8
		s-0.8-5.8-2.4-7.8c-1.6-1.9-3.8-2.9-6.6-2.9s-5,1-6.6,2.9s-2.3,4.5-2.3,7.8s0.8,5.899,2.3,7.8c1.6,1.9,3.7,2.9,6.6,2.9
		C97.3,54.8,99.5,53.9,101.1,52z"/>
	<path fill="#FDBE00" d="M142.2,31.4c2.1,2.6,3.1,6.3,3.1,10.9v17.9h-7.2V42.8c0-3.2-0.6-5.5-1.699-7c-1.101-1.5-2.9-2.2-5.5-2.2
		c-3,0-5.4,1.1-7,3.2v23.5h-7.3V28.1h6.4l0.3,2.7c2.8-2.2,5.9-3.3,9.4-3.3C137,27.5,140.1,28.8,142.2,31.4z"/>
	<path fill="#FDBE00" d="M153,58.3c-1.8-1.8-2.7-4.1-2.7-6.899c0-2.801,1-5.101,3-6.801c2-1.699,4.4-2.899,7.2-3.6s5.6-1.1,8.4-1.2
		c0-2.3-0.5-3.8-1.5-4.7s-2.5-1.3-4.7-1.3c-1.4,0-2.8,0.2-4.101,0.6c-1.399,0.4-2.899,1.1-4.6,2l-0.8-5.9c3.6-2,7.5-3,11.5-3
		c3.899,0,6.8,1.1,8.7,3.2c1.899,2.1,2.899,5.7,2.899,10.6v8c0,1.7,0.101,2.9,0.2,3.7c0.2,0.8,0.4,1.3,0.8,1.6
		c0.4,0.301,1.101,0.5,2,0.5h0.9l-0.8,5.9h-2c-2.101,0-3.7-0.3-4.801-1c-1.1-0.7-2.1-1.7-2.8-3.1c-1.1,1.3-2.6,2.3-4.3,3
		c-1.7,0.699-3.6,1.1-5.6,1.1C157.1,61,154.8,60.1,153,58.3z M165.9,54.5c1.199-0.5,2.199-1.3,3-2.2v-7.5c-3.301,0.101-6,0.7-8,1.8
		c-2,1-3,2.601-3,4.5c0,2.801,1.5,4.2,4.6,4.2C163.6,55.3,164.7,55,165.9,54.5z"/>
	<path fill="#FDBE00" d="M188.4,58.5c-1.5-1.6-2.2-3.5-2.2-5.8V33.9h-4.9L181.9,28h4.199v-7.4l7.301-0.8V28h7.6v5.9h-7.6v15.5
		c0,1.899,0.1,3.199,0.3,3.899s0.7,1.2,1.399,1.4c0.7,0.2,2,0.3,3.9,0.3h1.9l-0.601,5.9h-5.6C192,61,189.8,60.1,188.4,58.5z"/>
	<path fill="#FDBE00" d="M212.2,58.7c-2.601-1.5-4.601-3.601-5.9-6.101c-1.3-2.6-2-5.399-2-8.6c0-3,0.601-5.8,1.9-8.3
		c1.2-2.5,3.1-4.5,5.5-5.9c2.399-1.5,5.2-2.2,8.5-2.2c2.899,0,5.3,0.6,7.399,1.8c2.101,1.2,3.7,2.8,4.801,4.9
		c1.1,2.1,1.699,4.5,1.699,7.101c0,1.399-0.199,2.699-0.5,4H211.9c0.399,3.3,1.5,5.8,3.5,7.3c1.899,1.5,4.3,2.3,7.199,2.3
		c3.5,0,6.7-0.8,9.601-2.4l0.5,6c-3.3,1.601-6.9,2.5-10.8,2.5C218,61,214.8,60.2,212.2,58.7z M226.5,40.3c0-1.9-0.5-3.5-1.6-4.8
		c-1.101-1.3-2.7-1.9-4.9-1.9c-4.2,0-6.8,2.3-7.9,6.8h14.4V40.3z"/>
</g>
</svg>
