<?xml version="1.0" encoding="utf-8"?>
<!-- Generator: Adobe Illustrator 16.0.0, SVG Export Plug-In . SVG Version: 6.00 Build 0)  -->
<!DOCTYPE svg PUBLIC "-//W3C//DTD SVG 1.1//EN" "http://www.w3.org/Graphics/SVG/1.1/DTD/svg11.dtd">
<svg version="1.1" id="Layer_1" xmlns="http://www.w3.org/2000/svg" xmlns:xlink="http://www.w3.org/1999/xlink" x="0px" y="0px"
	 width="266px" height="78px" viewBox="0 0 266 78" style="enable-background:new 0 0 266 78;" xml:space="preserve">
<g>
	<path style="fill:#213E68;" d="M261,58c0,8.3-6.7,15-15,15H19c-8.3,0-15-6.7-15-15V21c0-8.3,6.7-15,15-15h227c8.3,0,15,6.7,15,15
		V58z"/>
	<path style="fill:none;stroke:#415168;stroke-miterlimit:10;" d="M261.5,57.5c0,8.3-6.7,15-15,15h-227c-8.3,0-15-6.7-15-15v-37
		c0-8.3,6.7-15,15-15h227c8.3,0,15,6.7,15,15V57.5z"/>
</g>
<g>
	<path style="fill:#4A8AE8;" d="M34.7,14.8h17c4.4,0,8.3,0.9,11.7,2.7c3.4,1.8,6.1,4.4,8,7.9c1.9,3.4,2.9,7.5,2.9,12.2
		s-1,8.7-2.9,12.2c-1.9,3.4-4.6,6-8,7.9c-3.4,1.8-7.3,2.7-11.7,2.7h-17V14.8z M51.7,53.5c4.6,0,8.2-1.4,10.6-4.3
		c2.4-2.8,3.6-6.7,3.6-11.7c0-5-1.2-8.9-3.6-11.7c-2.4-2.8-6-4.3-10.6-4.3h-9.4v32H51.7z"/>
	<path style="fill:#4A8AE8;" d="M85.8,58.7c-2.5-1.5-4.4-3.5-5.7-6.1c-1.3-2.6-2-5.4-2-8.5c0-3.1,0.7-5.9,2-8.4
		c1.3-2.6,3.2-4.6,5.7-6.1c2.5-1.5,5.4-2.2,8.7-2.2c3.4,0,6.3,0.7,8.8,2.2c2.5,1.5,4.4,3.5,5.7,6.1c1.3,2.6,2,5.4,2,8.4
		c0,3.1-0.6,5.9-2,8.5c-1.3,2.6-3.2,4.6-5.7,6.1c-2.5,1.5-5.4,2.2-8.8,2.2C91.2,61,88.3,60.2,85.8,58.7z M101.1,52
		c1.6-1.9,2.4-4.5,2.4-7.8c0-3.3-0.8-5.8-2.4-7.8c-1.6-1.9-3.8-2.9-6.6-2.9c-2.8,0-5,1-6.6,2.9c-1.6,1.9-2.3,4.5-2.3,7.8
		c0,3.3,0.8,5.9,2.3,7.8c1.6,1.9,3.7,2.9,6.6,2.9C97.3,54.8,99.5,53.9,101.1,52z"/>
	<path style="fill:#4A8AE8;" d="M142.2,31.4c2.1,2.6,3.1,6.3,3.1,10.9v17.9h-7.2V42.8c0-3.2-0.6-5.5-1.7-7c-1.1-1.5-2.9-2.2-5.5-2.2
		c-3,0-5.4,1.1-7,3.2v23.5h-7.3V28.1h6.4l0.3,2.7c2.8-2.2,5.9-3.3,9.4-3.3C137,27.5,140.1,28.8,142.2,31.4z"/>
	<path style="fill:#4A8AE8;" d="M153,58.3c-1.8-1.8-2.7-4.1-2.7-6.9c0-2.8,1-5.1,3-6.8c2-1.7,4.4-2.9,7.2-3.6s5.6-1.1,8.4-1.2
		c0-2.3-0.5-3.8-1.5-4.7c-1-0.9-2.5-1.3-4.7-1.3c-1.4,0-2.8,0.2-4.1,0.6c-1.4,0.4-2.9,1.1-4.6,2l-0.8-5.9c3.6-2,7.5-3,11.5-3
		c3.9,0,6.8,1.1,8.7,3.2c1.9,2.1,2.9,5.7,2.9,10.6v8c0,1.7,0.1,2.9,0.2,3.7c0.2,0.8,0.4,1.3,0.8,1.6c0.4,0.3,1.1,0.5,2,0.5h0.9
		l-0.8,5.9h-2c-2.1,0-3.7-0.3-4.8-1c-1.1-0.7-2.1-1.7-2.8-3.1c-1.1,1.3-2.6,2.3-4.3,3c-1.7,0.7-3.6,1.1-5.6,1.1
		C157.1,61,154.8,60.1,153,58.3z M165.9,54.5c1.2-0.5,2.2-1.3,3-2.2v-7.5c-3.3,0.1-6,0.7-8,1.8c-2,1-3,2.6-3,4.5
		c0,2.8,1.5,4.2,4.6,4.2C163.6,55.3,164.7,55,165.9,54.5z"/>
	<path style="fill:#4A8AE8;" d="M188.4,58.5c-1.5-1.6-2.2-3.5-2.2-5.8V33.9h-4.9l0.6-5.9h4.2v-7.4l7.3-0.8v8.2h7.6v5.9h-7.6v15.5
		c0,1.9,0.1,3.2,0.3,3.9c0.2,0.7,0.7,1.2,1.4,1.4c0.7,0.2,2,0.3,3.9,0.3h1.9l-0.6,5.9h-5.6C192,61,189.8,60.1,188.4,58.5z"/>
	<path style="fill:#4A8AE8;" d="M212.2,58.7c-2.6-1.5-4.6-3.6-5.9-6.1c-1.3-2.6-2-5.4-2-8.6c0-3,0.6-5.8,1.9-8.3
		c1.2-2.5,3.1-4.5,5.5-5.9c2.4-1.5,5.2-2.2,8.5-2.2c2.9,0,5.3,0.6,7.4,1.8c2.1,1.2,3.7,2.8,4.8,4.9s1.7,4.5,1.7,7.1
		c0,1.4-0.2,2.7-0.5,4h-21.7c0.4,3.3,1.5,5.8,3.5,7.3c1.9,1.5,4.3,2.3,7.2,2.3c3.5,0,6.7-0.8,9.6-2.4l0.5,6
		c-3.3,1.6-6.9,2.5-10.8,2.5C218,61,214.8,60.2,212.2,58.7z M226.5,40.3c0-1.9-0.5-3.5-1.6-4.8c-1.1-1.3-2.7-1.9-4.9-1.9
		c-4.2,0-6.8,2.3-7.9,6.8H226.5z"/>
</g>
<g>
</g>
<g>
</g>
<g>
</g>
<g>
</g>
<g>
</g>
<g>
</g>
<g>
</g>
<g>
</g>
<g>
</g>
<g>
</g>
<g>
</g>
<g>
</g>
<g>
</g>
<g>
</g>
<g>
</g>
<g>
</g>
</svg>
