<?xml version="1.0" encoding="utf-8"?>
<!-- Generator: Adobe Illustrator 16.0.0, SVG Export Plug-In . SVG Version: 6.00 Build 0)  -->
<!DOCTYPE svg PUBLIC "-//W3C//DTD SVG 1.1//EN" "http://www.w3.org/Graphics/SVG/1.1/DTD/svg11.dtd">
<svg version="1.1" id="Layer_1" xmlns="http://www.w3.org/2000/svg" xmlns:xlink="http://www.w3.org/1999/xlink" x="0px" y="0px"
	 width="877px" height="132px" viewBox="-27 0 877 132" enable-background="new -27 0 877 132" xml:space="preserve">
<g>
	<path fill="#708090" d="M87.1,117.349c0,5.972-4.611,10.947-10.144,10.947h-89.05c-5.532,0-10.142-4.976-10.142-10.947V21.24
		c0-5.971,4.61-10.947,10.142-10.947h89.05c5.533,0,10.144,4.976,10.144,10.947V117.349z"/>
</g>
<path fill="none" stroke="#FDBE00" stroke-width="9" stroke-linecap="round" d="M-5.374,110.666L25.978,76.83
	c10.934,11.658,28.453,11.658,39.519,0c11.065-11.801,11.329-30.994,0.395-42.937c-10.933-11.942-28.716-12.227-39.783-0.426
	C15.043,45.267,14.78,64.46,25.714,76.403 M16.229,92.61l-20.287,21.895l-4.743-5.117l20.288-21.896"/>
<g>
	<path d="M114.8,17.7h44v11h-32.2v17h25.3v11h-25.3v20h33.2v11h-45V17.7z"/>
	<path d="M163.3,38.1h11.4l12.8,36.2l12.8-36.2h11.4l-18.9,49.6h-10.5L163.3,38.1z"/>
	<path d="M218.2,84.7C215.4,82,214,78.4,214,74c0-4.3,1.5-7.8,4.6-10.4s6.8-4.4,11.1-5.5c4.3-1.1,8.6-1.7,12.9-1.9
		c-0.1-3.5-0.8-5.9-2.3-7.3s-3.9-2-7.3-2c-2.1,0-4.3,0.3-6.4,0.9c-2.1,0.6-4.5,1.6-7,3.1l-1.2-9.1c5.6-3.1,11.5-4.6,17.7-4.6
		c6,0,10.5,1.6,13.4,5c2.9,3.3,4.4,8.8,4.4,16.3v12.3c0,2.601,0.1,4.5,0.4,5.601c0.2,1.199,0.7,2,1.3,2.5s1.7,0.699,3.1,0.699h1.4
		l-1.3,9.101h-3.1c-3.2,0-5.7-0.5-7.4-1.601c-1.8-1.1-3.2-2.6-4.3-4.699c-1.7,1.899-3.9,3.5-6.6,4.6c-2.7,1.1-5.5,1.7-8.6,1.7
		C224.4,88.7,220.9,87.4,218.2,84.7z M238,78.8c1.8-0.8,3.4-2,4.6-3.5V63.8c-5.1,0.2-9.3,1.1-12.3,2.7c-3.1,1.6-4.7,3.9-4.7,7
		c0,4.3,2.4,6.5,7.1,6.5C234.4,80,236.1,79.6,238,78.8z"/>
	<path d="M306.1,43.3c3.2,4.1,4.8,9.7,4.8,16.8v27.6h-11.1V60.8c0-4.9-0.9-8.5-2.5-10.8c-1.7-2.3-4.5-3.4-8.5-3.4
		c-4.7,0-8.3,1.6-10.8,4.9v36.2h-11.2V38.1h9.9l0.4,4.1c4.3-3.3,9.1-5,14.5-5C298.1,37.2,302.9,39.3,306.1,43.3z"/>
	<path d="M319.5,84.8l1.1-9.899c5.1,3.3,10.3,5,15.4,5c2.7,0,4.8-0.5,6.3-1.4c1.4-0.9,2.1-2.3,2.1-4c0-2-0.7-3.5-2.2-4.5
		s-3.9-2.1-7.2-3.3c-4.9-1.7-8.6-3.6-11.1-5.7s-3.8-5.2-3.8-9.3c0-4.3,1.6-7.8,4.9-10.5c3.2-2.7,7.8-4.1,13.6-4.1
		c5.5,0,10.4,1.2,14.7,3.6l-1.1,9.7c-2.2-1.6-4.4-2.8-6.5-3.7c-2.1-0.9-4.4-1.3-6.9-1.3s-4.4,0.5-5.7,1.4c-1.3,1-2,2.4-2,4.1
		c0,1.3,0.4,2.4,1.1,3.3c0.7,0.9,1.8,1.6,3.1,2.2c1.4,0.6,3.5,1.4,6.5,2.5c4.5,1.7,7.9,3.6,10.3,5.8s3.5,5.2,3.5,9.2
		c0,4.5-1.6,8-4.8,10.8c-3.2,2.8-8,4-14.5,4C330.3,88.7,324.7,87.4,319.5,84.8z"/>
	<path d="M358.9,38.1h11.4l12.8,36.2l12.8-36.2h11.4l-18.9,49.6h-10.5L358.9,38.1z"/>
	<path d="M413.8,17.7H425v11.5h-11.2V17.7z M413.8,38.1H425v49.6h-11.2V38.1z"/>
	<path d="M439.9,85.2c-2.101-2.4-3.101-5.4-3.101-9V12.7H447.9v58.2c0,2.8,0.199,4.8,0.5,6c0.3,1.199,0.899,1.899,1.8,2.3
		c0.899,0.3,2.3,0.5,4.399,0.5l-1.1,9.1h-4C445.2,88.7,442,87.5,439.9,85.2z"/>
	<path d="M465.2,85.2c-2.101-2.4-3.101-5.4-3.101-9V12.7H473.2v58.2c0,2.8,0.2,4.8,0.5,6c0.3,1.199,0.899,1.899,1.8,2.3
		c0.9,0.3,2.3,0.5,4.4,0.5l-1.101,9.1h-4C470.5,88.7,467.3,87.5,465.2,85.2z"/>
	<path d="M496.1,85.2c-4-2.3-7.1-5.5-9.199-9.5c-2.101-4-3.101-8.4-3.101-13.3c0-4.7,0.9-8.9,2.8-12.8c1.9-3.8,4.7-6.9,8.4-9.1
		c3.7-2.3,8-3.4,13-3.4c4.4,0,8.2,0.9,11.5,2.8c3.2,1.8,5.7,4.4,7.4,7.5c1.699,3.2,2.5,6.9,2.5,11c0,2.1-0.2,4.2-0.7,6.1h-33.4
		c0.601,5.1,2.4,8.9,5.3,11.2c3,2.3,6.7,3.5,11.101,3.5c5.399,0,10.3-1.2,14.7-3.7l0.8,9.3c-5.101,2.5-10.601,3.8-16.601,3.8
		C505.1,88.7,500.2,87.6,496.1,85.2z M518.2,57c0-2.9-0.8-5.4-2.5-7.4s-4.2-3-7.601-3c-6.5,0-10.5,3.5-12.199,10.4H518.2z"/>
	<path d="M570.3,87.6c-4.399-1-7.899-2.1-10.5-3.399l1.4-12.3c8.7,4.1,16.5,6.199,23.5,6.199c3.899,0,7-0.699,9.2-2.199
		c2.199-1.5,3.3-3.7,3.3-6.601c0-2.3-0.601-4.1-1.8-5.5c-1.2-1.4-2.9-2.6-5.101-3.6c-2.3-1-5.6-2.3-10.1-3.8
		c-4.3-1.4-7.9-2.9-10.8-4.6c-2.9-1.6-5.2-3.7-6.801-6.3c-1.699-2.6-2.6-5.8-2.6-9.6c0-5.9,2.2-10.6,6.6-14.2
		c4.4-3.6,10.601-5.4,18.801-5.4c4,0,7.899,0.4,11.8,1.3c3.899,0.9,7.3,2,10.3,3.3l-1.2,12c-4-1.9-7.7-3.4-11.1-4.3
		c-3.4-0.9-6.9-1.4-10.5-1.4c-4,0-7.101,0.7-9.3,2c-2.2,1.4-3.301,3.5-3.301,6.3c0,2,0.601,3.7,1.7,5c1.101,1.3,2.601,2.4,4.601,3.3
		c2,0.9,4.8,1.9,8.6,3.1c8,2.5,13.9,5.4,17.6,8.6c3.801,3.3,5.7,7.8,5.7,13.5s-2.1,10.4-6.2,14.3c-4.1,3.9-11.1,5.8-21,5.8
		C578.9,89.1,574.7,88.6,570.3,87.6z"/>
	<path d="M628.1,85.2c-4-2.3-7.1-5.5-9.199-9.5c-2.101-4-3.101-8.4-3.101-13.3c0-4.7,0.9-8.9,2.8-12.8c1.9-3.8,4.7-6.9,8.4-9.1
		c3.7-2.3,8-3.4,13-3.4c4.4,0,8.2,0.9,11.5,2.8c3.2,1.8,5.7,4.4,7.4,7.5c1.699,3.2,2.5,6.9,2.5,11c0,2.1-0.2,4.2-0.7,6.1h-33.4
		c0.601,5.1,2.4,8.9,5.3,11.2c3,2.3,6.7,3.5,11.101,3.5c5.399,0,10.3-1.2,14.7-3.7l0.8,9.3c-5.101,2.5-10.601,3.8-16.601,3.8
		C637.1,88.7,632.2,87.6,628.1,85.2z M650.2,57c0-2.9-0.8-5.4-2.5-7.4s-4.2-3-7.601-3c-6.5,0-10.5,3.5-12.199,10.4H650.2z"/>
	<path d="M679.5,85.2c-4-2.3-7.1-5.5-9.2-9.5c-2.1-4-3.1-8.4-3.1-13.3c0-4.7,0.899-8.9,2.8-12.8c1.9-3.8,4.7-6.9,8.4-9.1
		c3.699-2.3,8-3.4,13-3.4c4.399,0,8.199,0.9,11.5,2.8c3.199,1.8,5.699,4.4,7.399,7.5c1.7,3.2,2.5,6.9,2.5,11c0,2.1-0.2,4.2-0.7,6.1
		H678.7c0.6,5.1,2.399,8.9,5.3,11.2c3,2.3,6.7,3.5,11.1,3.5c5.4,0,10.301-1.2,14.7-3.7l0.8,9.3c-5.1,2.5-10.6,3.8-16.6,3.8
		C688.5,88.7,683.6,87.6,679.5,85.2z M701.6,57c0-2.9-0.8-5.4-2.5-7.4c-1.699-2-4.199-3-7.6-3c-6.5,0-10.5,3.5-12.2,10.4H701.6z"/>
	<path d="M721.6,12.7h11.2v46.4l16.4-21H762.1L743.4,61.6l19.1,26.1h-12.9l-16.8-23.2v23.2h-11.2V12.7z"/>
	<path d="M776,85.2c-4-2.3-7.1-5.5-9.2-9.5c-2.1-4-3.1-8.4-3.1-13.3c0-4.7,0.899-8.9,2.8-12.8c1.9-3.8,4.7-6.9,8.4-9.1
		c3.699-2.3,8-3.4,13-3.4c4.399,0,8.199,0.9,11.5,2.8c3.199,1.8,5.699,4.4,7.399,7.5c1.7,3.2,2.5,6.9,2.5,11c0,2.1-0.2,4.2-0.7,6.1
		H775.2c0.6,5.1,2.399,8.9,5.3,11.2c3,2.3,6.7,3.5,11.1,3.5c5.4,0,10.301-1.2,14.7-3.7l0.8,9.3c-5.1,2.5-10.6,3.8-16.6,3.8
		C785,88.7,780.1,87.6,776,85.2z M798.1,57c0-2.9-0.8-5.4-2.5-7.4c-1.699-2-4.199-3-7.6-3c-6.5,0-10.5,3.5-12.2,10.4H798.1z"/>
	<path d="M818.2,38.1h10.1l0.601,6.3c1.8-2.2,3.899-4,6.199-5.3c2.301-1.3,4.801-2,7.301-2c0.699,0,1.399,0.1,2.199,0.2L843.7,48.7
		c-1.101-0.3-2.3-0.5-3.8-0.5c-2.2,0-4.301,0.5-6.2,1.5c-1.9,1-3.3,2.3-4.101,3.7v34.3H818.2V38.1L818.2,38.1z"/>
</g>
<g>
	<path d="M591,119l8.8-22.9h3.3l9.4,22.9H609l-2.7-6.9h-9.6l-2.5,6.9H591z M597.6,109.6h7.801l-2.4-6.3c-0.7-1.899-1.3-3.5-1.6-4.8
		c-0.301,1.5-0.7,2.9-1.2,4.4L597.6,109.6z"/>
	<path d="M614.4,119V96.1h2.8V119H614.4z"/>
	<path d="M624.6,119l-5.1-16.6h2.9l2.6,9.6l1,3.6c0-0.199,0.3-1.3,0.9-3.399l2.6-9.7h2.9l2.5,9.6l0.8,3.2l1-3.2l2.8-9.6h2.7
		l-5.2,16.6h-2.9l-2.6-9.899l-0.6-2.8l-3.4,12.8h-2.9V119z"/>
	<path d="M655.5,117c-1,0.9-2,1.5-3,1.9c-1,0.399-2,0.5-3.1,0.5c-1.801,0-3.2-0.4-4.2-1.301c-1-0.899-1.5-2-1.5-3.399
		c0-0.8,0.2-1.601,0.6-2.2c0.4-0.7,0.9-1.2,1.5-1.6c0.601-0.4,1.3-0.7,2-0.9c0.601-0.1,1.4-0.3,2.5-0.4c2.3-0.3,3.9-0.6,5-1
		c0-0.399,0-0.6,0-0.699c0-1.101-0.3-2-0.8-2.4c-0.7-0.6-1.8-1-3.2-1c-1.3,0-2.3,0.2-2.899,0.7c-0.601,0.5-1.101,1.3-1.4,2.5
		l-2.8-0.4c0.3-1.2,0.7-2.1,1.2-2.899c0.6-0.7,1.399-1.301,2.5-1.7c1.1-0.4,2.3-0.601,3.8-0.601c1.399,0,2.6,0.2,3.5,0.5
		c0.899,0.301,1.5,0.801,2,1.301c0.399,0.5,0.7,1.1,0.899,1.899c0.101,0.5,0.101,1.3,0.101,2.601v3.8c0,2.6,0.1,4.3,0.2,5
		c0.1,0.7,0.399,1.399,0.699,2H656.2C655.8,118.4,655.6,117.7,655.5,117z M655.3,110.7c-1,0.399-2.6,0.8-4.6,1.1
		c-1.2,0.2-2,0.4-2.5,0.601c-0.5,0.199-0.8,0.5-1.101,0.899c-0.3,0.4-0.399,0.8-0.399,1.3c0,0.801,0.3,1.4,0.899,1.9
		c0.601,0.5,1.4,0.8,2.5,0.8c1.101,0,2-0.2,2.9-0.7c0.8-0.5,1.5-1.1,1.9-1.899c0.3-0.601,0.5-1.601,0.5-2.8v-1.2H655.3z"/>
	<path d="M662.3,125.4L662,122.8c0.6,0.2,1.2,0.3,1.6,0.3c0.601,0,1.101-0.1,1.5-0.3c0.4-0.2,0.7-0.5,0.9-0.899
		c0.2-0.301,0.5-1,0.9-2.101c0.1-0.2,0.1-0.399,0.3-0.7l-6.3-16.6h3l3.5,9.6c0.399,1.2,0.8,2.5,1.199,3.801
		c0.301-1.301,0.7-2.601,1.2-3.801l3.5-9.699h2.8l-6.3,16.899c-0.7,1.8-1.2,3.101-1.6,3.8c-0.5,0.9-1.101,1.601-1.7,2
		c-0.6,0.4-1.4,0.601-2.3,0.601C663.6,125.7,663,125.6,662.3,125.4z"/>
	<path d="M677.3,114l2.8-0.4c0.2,1.101,0.601,2,1.301,2.601c0.699,0.6,1.699,0.899,3,0.899c1.3,0,2.3-0.3,2.899-0.8
		c0.601-0.5,0.9-1.1,0.9-1.899c0-0.601-0.3-1.101-0.8-1.5c-0.4-0.301-1.301-0.601-2.9-1c-2.1-0.5-3.5-1-4.3-1.4s-1.4-0.9-1.8-1.6
		c-0.4-0.7-0.601-1.4-0.601-2.2c0-0.7,0.2-1.4,0.5-2.101c0.3-0.6,0.8-1.199,1.4-1.6c0.399-0.3,1-0.6,1.8-0.8s1.6-0.3,2.4-0.3
		c1.3,0,2.399,0.199,3.399,0.6s1.7,0.9,2.2,1.5s0.8,1.5,1,2.6l-2.8,0.4c-0.1-0.9-0.5-1.5-1.1-2c-0.601-0.5-1.4-0.7-2.5-0.7
		c-1.301,0-2.2,0.2-2.801,0.601c-0.6,0.399-0.8,0.899-0.8,1.5c0,0.399,0.101,0.699,0.3,1c0.2,0.3,0.601,0.6,1.101,0.8
		c0.3,0.1,1.1,0.3,2.5,0.7c2,0.5,3.399,1,4.2,1.3c0.8,0.3,1.399,0.8,1.899,1.5c0.4,0.6,0.7,1.399,0.7,2.399
		c0,0.9-0.3,1.801-0.8,2.601s-1.3,1.5-2.4,1.899c-1.1,0.4-2.2,0.7-3.5,0.7c-2.2,0-3.8-0.399-4.899-1.3
		C678.4,117.1,677.7,115.8,677.3,114z"/>
	<path d="M702.2,114l2.8-0.4c0.2,1.101,0.6,2,1.3,2.601c0.7,0.6,1.7,0.899,3,0.899s2.3-0.3,2.9-0.8c0.6-0.5,0.899-1.1,0.899-1.899
		c0-0.601-0.3-1.101-0.8-1.5c-0.399-0.301-1.3-0.601-2.899-1c-2.101-0.5-3.5-1-4.301-1.4c-0.8-0.4-1.399-0.9-1.8-1.6
		c-0.399-0.7-0.6-1.4-0.6-2.2c0-0.7,0.2-1.4,0.5-2.101c0.3-0.6,0.8-1.199,1.399-1.6c0.4-0.3,1-0.6,1.801-0.8
		c0.8-0.2,1.6-0.3,2.399-0.3c1.3,0,2.4,0.199,3.4,0.6s1.7,0.9,2.2,1.5s0.8,1.5,1,2.6l-2.8,0.4c-0.101-0.9-0.5-1.5-1.101-2
		c-0.6-0.5-1.399-0.7-2.5-0.7c-1.3,0-2.2,0.2-2.8,0.601c-0.6,0.399-0.8,0.899-0.8,1.5c0,0.399,0.1,0.699,0.3,1
		c0.2,0.3,0.6,0.6,1.1,0.8c0.301,0.1,1.101,0.3,2.5,0.7c2,0.5,3.4,1,4.2,1.3s1.4,0.8,1.9,1.5c0.399,0.6,0.7,1.399,0.7,2.399
		c0,0.9-0.301,1.801-0.801,2.601s-1.3,1.5-2.399,1.899c-1.101,0.4-2.2,0.7-3.5,0.7c-2.2,0-3.8-0.399-4.9-1.3
		C703.3,117.1,702.5,115.8,702.2,114z"/>
	<path d="M730.7,113.7l2.899,0.399c-0.5,1.7-1.3,3-2.5,4c-1.199,0.9-2.8,1.4-4.8,1.4c-2.399,0-4.399-0.7-5.8-2.2s-2.1-3.6-2.1-6.3
		c0-2.8,0.699-5,2.199-6.5c1.4-1.5,3.301-2.3,5.601-2.3c2.2,0,4,0.8,5.399,2.3c1.4,1.5,2.101,3.6,2.101,6.4c0,0.199,0,0.399,0,0.8
		h-12.4c0.101,1.8,0.601,3.2,1.5,4.2c0.9,1,2.101,1.5,3.5,1.5c1,0,1.9-0.301,2.601-0.801C729.7,115.7,730.3,114.8,730.7,113.7z
		 M721.5,109.1h9.3c-0.1-1.399-0.5-2.399-1.1-3.1c-0.9-1.1-2.101-1.6-3.5-1.6c-1.3,0-2.4,0.399-3.3,1.3
		C722.1,106.5,721.6,107.7,721.5,109.1z"/>
	<path d="M748,117c-1,0.9-2,1.5-3,1.9c-1,0.399-2,0.5-3.1,0.5c-1.801,0-3.2-0.4-4.2-1.301c-1-0.899-1.5-2-1.5-3.399
		c0-0.8,0.2-1.601,0.6-2.2c0.4-0.7,0.9-1.2,1.5-1.6c0.601-0.4,1.3-0.7,2-0.9c0.601-0.1,1.4-0.3,2.5-0.4c2.3-0.3,3.9-0.6,5-1
		c0-0.399,0-0.6,0-0.699c0-1.101-0.3-2-0.8-2.4c-0.7-0.6-1.8-1-3.2-1c-1.3,0-2.3,0.2-2.899,0.7c-0.601,0.5-1.101,1.3-1.4,2.5
		l-2.8-0.4c0.3-1.2,0.7-2.1,1.2-2.899c0.6-0.7,1.399-1.301,2.5-1.7c1.1-0.4,2.3-0.601,3.8-0.601c1.399,0,2.6,0.2,3.5,0.5
		c0.899,0.301,1.5,0.801,2,1.301c0.399,0.5,0.7,1.1,0.899,1.899c0.101,0.5,0.101,1.3,0.101,2.601v3.8c0,2.6,0.1,4.3,0.2,5
		c0.1,0.7,0.399,1.399,0.699,2H748.7C748.3,118.4,748.1,117.7,748,117z M747.8,110.7c-1,0.399-2.6,0.8-4.6,1.1
		c-1.2,0.2-2,0.4-2.5,0.601c-0.5,0.199-0.8,0.5-1.101,0.899c-0.3,0.4-0.399,0.8-0.399,1.3c0,0.801,0.3,1.4,0.899,1.9
		c0.601,0.5,1.4,0.8,2.5,0.8c1.101,0,2-0.2,2.9-0.7c0.8-0.5,1.5-1.1,1.9-1.899c0.3-0.601,0.5-1.601,0.5-2.8v-1.2H747.8z"/>
	<path d="M754.9,119v-16.6h2.5v2.5c0.6-1.2,1.199-2,1.8-2.301c0.6-0.3,1.1-0.6,1.8-0.6c0.9,0,1.9,0.3,2.9,0.9l-1,2.6
		c-0.7-0.4-1.4-0.6-2.101-0.6c-0.6,0-1.2,0.199-1.7,0.6s-0.8,0.9-1,1.5c-0.3,1-0.5,2.1-0.5,3.3v8.7H754.9z"/>
	<path d="M776.4,112.9l2.8,0.399c-0.3,1.9-1.101,3.4-2.3,4.5c-1.2,1.101-2.801,1.601-4.601,1.601c-2.3,0-4.1-0.7-5.5-2.2
		c-1.399-1.5-2.1-3.601-2.1-6.4c0-1.8,0.3-3.399,0.899-4.7c0.601-1.3,1.5-2.399,2.7-3c1.2-0.699,2.5-1,4-1c1.8,0,3.3,0.5,4.4,1.4
		c1.1,0.9,1.9,2.2,2.2,3.9l-2.7,0.399c-0.3-1.1-0.7-2-1.4-2.5c-0.7-0.6-1.5-0.8-2.399-0.8c-1.4,0-2.601,0.5-3.5,1.5
		c-0.9,1-1.301,2.6-1.301,4.8s0.4,3.8,1.301,4.9c0.899,1,2,1.5,3.3,1.5c1.1,0,2-0.3,2.8-1C775.8,115.4,776.2,114.3,776.4,112.9z"/>
	<path d="M781.6,119V96.1h2.801v8.2c1.3-1.5,3-2.3,5-2.3c1.199,0,2.3,0.2,3.199,0.7c0.9,0.5,1.601,1.2,1.9,2
		c0.4,0.899,0.6,2.1,0.6,3.7V119h-2.8v-10.5c0-1.4-0.3-2.4-0.899-3.1c-0.601-0.7-1.5-1-2.601-1c-0.8,0-1.6,0.199-2.399,0.6
		c-0.7,0.4-1.301,1-1.601,1.8c-0.3,0.7-0.5,1.8-0.5,3.101v9.1H781.6z"/>
	<path d="M799.4,99.3v-3.2h2.8v3.2H799.4z M799.4,119v-16.6h2.8V119H799.4z"/>
	<path d="M806.5,119v-16.6h2.5v2.399c1.2-1.8,3-2.7,5.3-2.7c1,0,1.9,0.2,2.8,0.5c0.801,0.4,1.5,0.801,1.9,1.4s0.7,1.3,0.9,2.1
		c0.1,0.5,0.199,1.4,0.199,2.7V119h-2.8v-10.1c0-1.101-0.1-2-0.3-2.601c-0.2-0.6-0.6-1-1.2-1.399c-0.6-0.301-1.2-0.5-2-0.5
		c-1.2,0-2.2,0.399-3.1,1.1c-0.9,0.8-1.3,2.2-1.3,4.3v9.101h-2.9V119z"/>
	<path d="M823.8,120.4l2.7,0.399c0.1,0.8,0.4,1.5,1,1.8c0.7,0.5,1.7,0.801,2.9,0.801c1.3,0,2.3-0.301,3-0.801
		c0.699-0.5,1.199-1.3,1.399-2.199c0.101-0.601,0.2-1.801,0.2-3.601c-1.2,1.4-2.8,2.2-4.6,2.2c-2.301,0-4-0.8-5.301-2.5
		c-1.3-1.6-1.899-3.6-1.899-5.9c0-1.6,0.3-3,0.899-4.399c0.601-1.3,1.4-2.4,2.5-3.101c1.101-0.699,2.4-1.1,3.801-1.1
		c2,0,3.6,0.8,4.8,2.4v-2h2.6v14.3c0,2.6-0.3,4.399-0.8,5.5c-0.5,1.1-1.4,1.899-2.5,2.6s-2.5,0.9-4.2,0.9c-2,0-3.6-0.4-4.8-1.3
		C824.3,123.5,823.8,122.2,823.8,120.4z M826.1,110.4c0,2.199,0.4,3.8,1.301,4.8c0.899,1,1.899,1.5,3.3,1.5c1.3,0,2.399-0.5,3.3-1.5
		s1.3-2.601,1.3-4.7c0-2-0.5-3.6-1.399-4.6c-0.9-1-2-1.5-3.301-1.5c-1.3,0-2.3,0.5-3.199,1.5C826.5,106.9,826.1,108.4,826.1,110.4z"
		/>
	<path d="M842.9,119v-3.2h3.199v3.2H842.9z"/>
</g>
</svg>
