<?xml version="1.0" encoding="utf-8"?>
<!-- Generator: Adobe Illustrator 16.0.0, SVG Export Plug-In . SVG Version: 6.00 Build 0)  -->
<!DOCTYPE svg PUBLIC "-//W3C//DTD SVG 1.1//EN" "http://www.w3.org/Graphics/SVG/1.1/DTD/svg11.dtd">
<svg version="1.1" id="Layer_1" xmlns="http://www.w3.org/2000/svg" xmlns:xlink="http://www.w3.org/1999/xlink" x="0px" y="0px"
	 width="840px" height="98.2px" viewBox="0 0 840 98.2" style="enable-background:new 0 0 840 98.2;" xml:space="preserve">
<path style="fill:none;stroke:#415168;stroke-width:6.2874;stroke-linecap:round;" d="M18.4,83.4l26.8-26.8c9.4,9.2,24.3,9.2,33.8,0
	c9.5-9.4,9.7-24.6,0.3-34c-9.4-9.5-24.6-9.7-34-0.3c-9.5,9.4-9.7,24.6-0.3,34 M36.8,69L19.5,86.4l-4.1-4.1L32.8,65"/>
<path d="M103.8,13.7h44v11h-32.2v17h25.3v11h-25.3v20h33.2v11h-45V13.7z"/>
<path d="M152.3,34.1h11.4l12.8,36.2l12.8-36.2h11.4l-18.9,49.6h-10.5L152.3,34.1z"/>
<path d="M207.2,80.7C204.4,78,203,74.4,203,70c0-4.3,1.5-7.8,4.6-10.4c3.1-2.6,6.8-4.4,11.1-5.5c4.3-1.1,8.6-1.7,12.9-1.9
	c-0.1-3.5-0.8-5.9-2.3-7.3s-3.9-2-7.3-2c-2.1,0-4.3,0.3-6.4,0.9c-2.1,0.6-4.5,1.6-7,3.1l-1.2-9.1c5.6-3.1,11.5-4.6,17.7-4.6
	c6,0,10.5,1.6,13.4,5c2.9,3.3,4.4,8.8,4.4,16.3v12.3c0,2.6,0.1,4.5,0.4,5.6c0.2,1.2,0.7,2,1.3,2.5s1.7,0.7,3.1,0.7h1.4l-1.3,9.1
	h-3.1c-3.2,0-5.7-0.5-7.4-1.6c-1.8-1.1-3.2-2.6-4.3-4.7c-1.7,1.9-3.9,3.5-6.6,4.6c-2.7,1.1-5.5,1.7-8.6,1.7
	C213.4,84.7,209.9,83.4,207.2,80.7z M227,74.8c1.8-0.8,3.4-2,4.6-3.5V59.8c-5.1,0.2-9.3,1.1-12.3,2.7c-3.1,1.6-4.7,3.9-4.7,7
	c0,4.3,2.4,6.5,7.1,6.5C223.4,76,225.1,75.6,227,74.8z"/>
<path d="M295.1,39.3c3.2,4.1,4.8,9.7,4.8,16.8v27.6h-11.1V56.8c0-4.9-0.9-8.5-2.5-10.8c-1.7-2.3-4.5-3.4-8.5-3.4
	c-4.7,0-8.3,1.6-10.8,4.9v36.2h-11.2V34.1h9.9l0.4,4.1c4.3-3.3,9.1-5,14.5-5C287.1,33.2,291.9,35.3,295.1,39.3z"/>
<path d="M308.5,80.8l1.1-9.9c5.1,3.3,10.3,5,15.4,5c2.7,0,4.8-0.5,6.3-1.4c1.4-0.9,2.1-2.3,2.1-4c0-2-0.7-3.5-2.2-4.5
	s-3.9-2.1-7.2-3.3c-4.9-1.7-8.6-3.6-11.1-5.7s-3.8-5.2-3.8-9.3c0-4.3,1.6-7.8,4.9-10.5c3.2-2.7,7.8-4.1,13.6-4.1
	c5.5,0,10.4,1.2,14.7,3.6l-1.1,9.7c-2.2-1.6-4.4-2.8-6.5-3.7c-2.1-0.9-4.4-1.3-6.9-1.3s-4.4,0.5-5.7,1.4c-1.3,1-2,2.4-2,4.1
	c0,1.3,0.4,2.4,1.1,3.3c0.7,0.9,1.8,1.6,3.1,2.2c1.4,0.6,3.5,1.4,6.5,2.5c4.5,1.7,7.9,3.6,10.3,5.8s3.5,5.2,3.5,9.2
	c0,4.5-1.6,8-4.8,10.8c-3.2,2.8-8,4-14.5,4C319.3,84.7,313.7,83.4,308.5,80.8z"/>
<path d="M347.9,34.1h11.4l12.8,36.2l12.8-36.2h11.4l-18.9,49.6h-10.5L347.9,34.1z"/>
<path d="M402.8,13.7H414v11.5h-11.2V13.7z M402.8,34.1H414v49.6h-11.2V34.1z"/>
<path d="M428.9,81.2c-2.1-2.4-3.1-5.4-3.1-9V8.7h11.1v58.2c0,2.8,0.2,4.8,0.5,6c0.3,1.2,0.9,1.9,1.8,2.3c0.9,0.3,2.3,0.5,4.4,0.5
	l-1.1,9.1h-4C434.2,84.7,431,83.5,428.9,81.2z"/>
<path d="M454.2,81.2c-2.1-2.4-3.1-5.4-3.1-9V8.7h11.1v58.2c0,2.8,0.2,4.8,0.5,6c0.3,1.2,0.9,1.9,1.8,2.3c0.9,0.3,2.3,0.5,4.4,0.5
	l-1.1,9.1h-4C459.5,84.7,456.3,83.5,454.2,81.2z"/>
<path d="M485.1,81.2c-4-2.3-7.1-5.5-9.2-9.5c-2.1-4-3.1-8.4-3.1-13.3c0-4.7,0.9-8.9,2.8-12.8c1.9-3.8,4.7-6.9,8.4-9.1
	c3.7-2.3,8-3.4,13-3.4c4.4,0,8.2,0.9,11.5,2.8c3.2,1.8,5.7,4.4,7.4,7.5c1.7,3.2,2.5,6.9,2.5,11c0,2.1-0.2,4.2-0.7,6.1h-33.4
	c0.6,5.1,2.4,8.9,5.3,11.2c3,2.3,6.7,3.5,11.1,3.5c5.4,0,10.3-1.2,14.7-3.7l0.8,9.3c-5.1,2.5-10.6,3.8-16.6,3.8
	C494.1,84.7,489.2,83.6,485.1,81.2z M507.2,53c0-2.9-0.8-5.4-2.5-7.4s-4.2-3-7.6-3c-6.5,0-10.5,3.5-12.2,10.4H507.2z"/>
<path d="M559.3,83.6c-4.4-1-7.9-2.1-10.5-3.4l1.4-12.3c8.7,4.1,16.5,6.2,23.5,6.2c3.9,0,7-0.7,9.2-2.2c2.2-1.5,3.3-3.7,3.3-6.6
	c0-2.3-0.6-4.1-1.8-5.5c-1.2-1.4-2.9-2.6-5.1-3.6c-2.3-1-5.6-2.3-10.1-3.8c-4.3-1.4-7.9-2.9-10.8-4.6c-2.9-1.6-5.2-3.7-6.8-6.3
	c-1.7-2.6-2.6-5.8-2.6-9.6c0-5.9,2.2-10.6,6.6-14.2c4.4-3.6,10.6-5.4,18.8-5.4c4,0,7.9,0.4,11.8,1.3c3.9,0.9,7.3,2,10.3,3.3l-1.2,12
	c-4-1.9-7.7-3.4-11.1-4.3c-3.4-0.9-6.9-1.4-10.5-1.4c-4,0-7.1,0.7-9.3,2c-2.2,1.4-3.3,3.5-3.3,6.3c0,2,0.6,3.7,1.7,5
	c1.1,1.3,2.6,2.4,4.6,3.3c2,0.9,4.8,1.9,8.6,3.1c8,2.5,13.9,5.4,17.6,8.6c3.8,3.3,5.7,7.8,5.7,13.5s-2.1,10.4-6.2,14.3
	c-4.1,3.9-11.1,5.8-21,5.8C567.9,85.1,563.7,84.6,559.3,83.6z"/>
<path d="M617.1,81.2c-4-2.3-7.1-5.5-9.2-9.5c-2.1-4-3.1-8.4-3.1-13.3c0-4.7,0.9-8.9,2.8-12.8c1.9-3.8,4.7-6.9,8.4-9.1
	c3.7-2.3,8-3.4,13-3.4c4.4,0,8.2,0.9,11.5,2.8c3.2,1.8,5.7,4.4,7.4,7.5c1.7,3.2,2.5,6.9,2.5,11c0,2.1-0.2,4.2-0.7,6.1h-33.4
	c0.6,5.1,2.4,8.9,5.3,11.2c3,2.3,6.7,3.5,11.1,3.5c5.4,0,10.3-1.2,14.7-3.7l0.8,9.3c-5.1,2.5-10.6,3.8-16.6,3.8
	C626.1,84.7,621.2,83.6,617.1,81.2z M639.2,53c0-2.9-0.8-5.4-2.5-7.4s-4.2-3-7.6-3c-6.5,0-10.5,3.5-12.2,10.4H639.2z"/>
<path d="M668.5,81.2c-4-2.3-7.1-5.5-9.2-9.5c-2.1-4-3.1-8.4-3.1-13.3c0-4.7,0.9-8.9,2.8-12.8c1.9-3.8,4.7-6.9,8.4-9.1
	c3.7-2.3,8-3.4,13-3.4c4.4,0,8.2,0.9,11.5,2.8c3.2,1.8,5.7,4.4,7.4,7.5c1.7,3.2,2.5,6.9,2.5,11c0,2.1-0.2,4.2-0.7,6.1h-33.4
	c0.6,5.1,2.4,8.9,5.3,11.2c3,2.3,6.7,3.5,11.1,3.5c5.4,0,10.3-1.2,14.7-3.7l0.8,9.3c-5.1,2.5-10.6,3.8-16.6,3.8
	C677.5,84.7,672.6,83.6,668.5,81.2z M690.6,53c0-2.9-0.8-5.4-2.5-7.4c-1.7-2-4.2-3-7.6-3c-6.5,0-10.5,3.5-12.2,10.4H690.6z"/>
<path d="M710.6,8.7h11.2v46.4l16.4-21h12.9l-18.7,23.5l19.1,26.1h-12.9l-16.8-23.2v23.2h-11.2V8.7z"/>
<path d="M765,81.2c-4-2.3-7.1-5.5-9.2-9.5c-2.1-4-3.1-8.4-3.1-13.3c0-4.7,0.9-8.9,2.8-12.8c1.9-3.8,4.7-6.9,8.4-9.1
	c3.7-2.3,8-3.4,13-3.4c4.4,0,8.2,0.9,11.5,2.8c3.2,1.8,5.7,4.4,7.4,7.5c1.7,3.2,2.5,6.9,2.5,11c0,2.1-0.2,4.2-0.7,6.1h-33.4
	c0.6,5.1,2.4,8.9,5.3,11.2c3,2.3,6.7,3.5,11.1,3.5c5.4,0,10.3-1.2,14.7-3.7l0.8,9.3c-5.1,2.5-10.6,3.8-16.6,3.8
	C774,84.7,769.1,83.6,765,81.2z M787.1,53c0-2.9-0.8-5.4-2.5-7.4c-1.7-2-4.2-3-7.6-3c-6.5,0-10.5,3.5-12.2,10.4H787.1z"/>
<path d="M807.2,34.1h10.1l0.6,6.3c1.8-2.2,3.9-4,6.2-5.3c2.3-1.3,4.8-2,7.3-2c0.7,0,1.4,0.1,2.2,0.2l-0.9,11.4
	c-1.1-0.3-2.3-0.5-3.8-0.5c-2.2,0-4.3,0.5-6.2,1.5c-1.9,1-3.3,2.3-4.1,3.7v34.3h-11.4V34.1L807.2,34.1z"/>
<g>
</g>
<g>
</g>
<g>
</g>
<g>
</g>
<g>
</g>
<g>
</g>
<g>
</g>
<g>
</g>
<g>
</g>
<g>
</g>
<g>
</g>
<g>
</g>
<g>
</g>
<g>
</g>
<g>
</g>
</svg>
