<?xml version="1.0" encoding="utf-8"?>
<!-- Generator: Adobe Illustrator 16.0.0, SVG Export Plug-In . SVG Version: 6.00 Build 0)  -->
<!DOCTYPE svg PUBLIC "-//W3C//DTD SVG 1.1//EN" "http://www.w3.org/Graphics/SVG/1.1/DTD/svg11.dtd">
<svg version="1.1" id="Layer_1" xmlns="http://www.w3.org/2000/svg" xmlns:xlink="http://www.w3.org/1999/xlink" x="0px" y="0px"
	 width="833px" height="132px" viewBox="0 0 833 132" style="enable-background:new 0 0 833 132;" xml:space="preserve">
<g>
	<g>
		<path style="fill:#4A8AE8;" d="M87.1,94.5c0,4.2-3.5,7.7-7.7,7.7H11.8c-4.2,0-7.7-3.5-7.7-7.7V26.9c0-4.2,3.5-7.7,7.7-7.7h67.6
			c4.2,0,7.7,3.5,7.7,7.7V94.5z"/>
	</g>
	<path style="fill:none;stroke:#415168;stroke-width:6.2874;stroke-linecap:round;" d="M16.9,89.8l23.8-23.8c8.3,8.2,21.6,8.2,30,0
		c8.4-8.3,8.6-21.8,0.3-30.2c-8.3-8.4-21.8-8.6-30.2-0.3c-8.4,8.3-8.6,21.8-0.3,30.2 M33.3,77.1L17.9,92.5l-3.6-3.6l15.4-15.4"/>
</g>
<g>
	<path d="M94.8,17.7h44v11h-32.2v17h25.3v11h-25.3v20h33.2v11h-45V17.7z"/>
	<path d="M143.3,38.1h11.4l12.8,36.2l12.8-36.2h11.4l-18.9,49.6h-10.5L143.3,38.1z"/>
	<path d="M198.2,84.7C195.4,82,194,78.4,194,74c0-4.3,1.5-7.8,4.6-10.4c3.1-2.6,6.8-4.4,11.1-5.5c4.3-1.1,8.6-1.7,12.9-1.9
		c-0.1-3.5-0.8-5.9-2.3-7.3c-1.5-1.4-3.9-2-7.3-2c-2.1,0-4.3,0.3-6.4,0.9c-2.1,0.6-4.5,1.6-7,3.1l-1.2-9.1
		c5.6-3.1,11.5-4.6,17.7-4.6c6,0,10.5,1.6,13.4,5c2.9,3.3,4.4,8.8,4.4,16.3v12.3c0,2.6,0.1,4.5,0.4,5.6c0.2,1.2,0.7,2,1.3,2.5
		c0.6,0.5,1.7,0.7,3.1,0.7h1.4l-1.3,9.1h-3.1c-3.2,0-5.7-0.5-7.4-1.6c-1.8-1.1-3.2-2.6-4.3-4.7c-1.7,1.9-3.9,3.5-6.6,4.6
		c-2.7,1.1-5.5,1.7-8.6,1.7C204.4,88.7,200.9,87.4,198.2,84.7z M218,78.8c1.8-0.8,3.4-2,4.6-3.5V63.8c-5.1,0.2-9.3,1.1-12.3,2.7
		c-3.1,1.6-4.7,3.9-4.7,7c0,4.3,2.4,6.5,7.1,6.5C214.4,80,216.1,79.6,218,78.8z"/>
	<path d="M286.1,43.3c3.2,4.1,4.8,9.7,4.8,16.8v27.6h-11.1V60.8c0-4.9-0.9-8.5-2.5-10.8c-1.7-2.3-4.5-3.4-8.5-3.4
		c-4.7,0-8.3,1.6-10.8,4.9v36.2h-11.2V38.1h9.9l0.4,4.1c4.3-3.3,9.1-5,14.5-5C278.1,37.2,282.9,39.3,286.1,43.3z"/>
	<path d="M299.5,84.8l1.1-9.9c5.1,3.3,10.3,5,15.4,5c2.7,0,4.8-0.5,6.3-1.4c1.4-0.9,2.1-2.3,2.1-4c0-2-0.7-3.5-2.2-4.5
		c-1.5-1-3.9-2.1-7.2-3.3c-4.9-1.7-8.6-3.6-11.1-5.7c-2.5-2.1-3.8-5.2-3.8-9.3c0-4.3,1.6-7.8,4.9-10.5c3.2-2.7,7.8-4.1,13.6-4.1
		c5.5,0,10.4,1.2,14.7,3.6l-1.1,9.7c-2.2-1.6-4.4-2.8-6.5-3.7c-2.1-0.9-4.4-1.3-6.9-1.3c-2.5,0-4.4,0.5-5.7,1.4c-1.3,1-2,2.4-2,4.1
		c0,1.3,0.4,2.4,1.1,3.3c0.7,0.9,1.8,1.6,3.1,2.2c1.4,0.6,3.5,1.4,6.5,2.5c4.5,1.7,7.9,3.6,10.3,5.8c2.4,2.2,3.5,5.2,3.5,9.2
		c0,4.5-1.6,8-4.8,10.8s-8,4-14.5,4C310.3,88.7,304.7,87.4,299.5,84.8z"/>
	<path d="M338.9,38.1h11.4l12.8,36.2l12.8-36.2h11.4l-18.9,49.6h-10.5L338.9,38.1z"/>
	<path d="M393.8,17.7H405v11.5h-11.2V17.7z M393.8,38.1H405v49.6h-11.2V38.1z"/>
	<path d="M419.9,85.2c-2.1-2.4-3.1-5.4-3.1-9V12.7h11.1v58.2c0,2.8,0.2,4.8,0.5,6c0.3,1.2,0.9,1.9,1.8,2.3c0.9,0.3,2.3,0.5,4.4,0.5
		l-1.1,9.1h-4C425.2,88.7,422,87.5,419.9,85.2z"/>
	<path d="M445.2,85.2c-2.1-2.4-3.1-5.4-3.1-9V12.7h11.1v58.2c0,2.8,0.2,4.8,0.5,6c0.3,1.2,0.9,1.9,1.8,2.3c0.9,0.3,2.3,0.5,4.4,0.5
		l-1.1,9.1h-4C450.5,88.7,447.3,87.5,445.2,85.2z"/>
	<path d="M476.1,85.2c-4-2.3-7.1-5.5-9.2-9.5c-2.1-4-3.1-8.4-3.1-13.3c0-4.7,0.9-8.9,2.8-12.8c1.9-3.8,4.7-6.9,8.4-9.1
		c3.7-2.3,8-3.4,13-3.4c4.4,0,8.2,0.9,11.5,2.8c3.2,1.8,5.7,4.4,7.4,7.5c1.7,3.2,2.5,6.9,2.5,11c0,2.1-0.2,4.2-0.7,6.1h-33.4
		c0.6,5.1,2.4,8.9,5.3,11.2c3,2.3,6.7,3.5,11.1,3.5c5.4,0,10.3-1.2,14.7-3.7l0.8,9.3c-5.1,2.5-10.6,3.8-16.6,3.8
		C485.1,88.7,480.2,87.6,476.1,85.2z M498.2,57c0-2.9-0.8-5.4-2.5-7.4c-1.7-2-4.2-3-7.6-3c-6.5,0-10.5,3.5-12.2,10.4H498.2z"/>
	<path d="M550.3,87.6c-4.4-1-7.9-2.1-10.5-3.4l1.4-12.3c8.7,4.1,16.5,6.2,23.5,6.2c3.9,0,7-0.7,9.2-2.2c2.2-1.5,3.3-3.7,3.3-6.6
		c0-2.3-0.6-4.1-1.8-5.5c-1.2-1.4-2.9-2.6-5.1-3.6c-2.3-1-5.6-2.3-10.1-3.8c-4.3-1.4-7.9-2.9-10.8-4.6c-2.9-1.6-5.2-3.7-6.8-6.3
		c-1.7-2.6-2.6-5.8-2.6-9.6c0-5.9,2.2-10.6,6.6-14.2c4.4-3.6,10.6-5.4,18.8-5.4c4,0,7.9,0.4,11.8,1.3c3.9,0.9,7.3,2,10.3,3.3
		l-1.2,12c-4-1.9-7.7-3.4-11.1-4.3c-3.4-0.9-6.9-1.4-10.5-1.4c-4,0-7.1,0.7-9.3,2c-2.2,1.4-3.3,3.5-3.3,6.3c0,2,0.6,3.7,1.7,5
		s2.6,2.4,4.6,3.3c2,0.9,4.8,1.9,8.6,3.1c8,2.5,13.9,5.4,17.6,8.6c3.8,3.3,5.7,7.8,5.7,13.5c0,5.7-2.1,10.4-6.2,14.3
		c-4.1,3.9-11.1,5.8-21,5.8C558.9,89.1,554.7,88.6,550.3,87.6z"/>
	<path d="M608.1,85.2c-4-2.3-7.1-5.5-9.2-9.5c-2.1-4-3.1-8.4-3.1-13.3c0-4.7,0.9-8.9,2.8-12.8c1.9-3.8,4.7-6.9,8.4-9.1
		c3.7-2.3,8-3.4,13-3.4c4.4,0,8.2,0.9,11.5,2.8c3.2,1.8,5.7,4.4,7.4,7.5c1.7,3.2,2.5,6.9,2.5,11c0,2.1-0.2,4.2-0.7,6.1h-33.4
		c0.6,5.1,2.4,8.9,5.3,11.2c3,2.3,6.7,3.5,11.1,3.5c5.4,0,10.3-1.2,14.7-3.7l0.8,9.3c-5.1,2.5-10.6,3.8-16.6,3.8
		C617.1,88.7,612.2,87.6,608.1,85.2z M630.2,57c0-2.9-0.8-5.4-2.5-7.4c-1.7-2-4.2-3-7.6-3c-6.5,0-10.5,3.5-12.2,10.4H630.2z"/>
	<path d="M659.5,85.2c-4-2.3-7.1-5.5-9.2-9.5c-2.1-4-3.1-8.4-3.1-13.3c0-4.7,0.9-8.9,2.8-12.8c1.9-3.8,4.7-6.9,8.4-9.1
		c3.7-2.3,8-3.4,13-3.4c4.4,0,8.2,0.9,11.5,2.8c3.2,1.8,5.7,4.4,7.4,7.5c1.7,3.2,2.5,6.9,2.5,11c0,2.1-0.2,4.2-0.7,6.1h-33.4
		c0.6,5.1,2.4,8.9,5.3,11.2c3,2.3,6.7,3.5,11.1,3.5c5.4,0,10.3-1.2,14.7-3.7l0.8,9.3c-5.1,2.5-10.6,3.8-16.6,3.8
		C668.5,88.7,663.6,87.6,659.5,85.2z M681.6,57c0-2.9-0.8-5.4-2.5-7.4c-1.7-2-4.2-3-7.6-3c-6.5,0-10.5,3.5-12.2,10.4H681.6z"/>
	<path d="M701.6,12.7h11.2v46.4l16.4-21h12.9l-18.7,23.5l19.1,26.1h-12.9l-16.8-23.2v23.2h-11.2V12.7z"/>
	<path d="M756,85.2c-4-2.3-7.1-5.5-9.2-9.5c-2.1-4-3.1-8.4-3.1-13.3c0-4.7,0.9-8.9,2.8-12.8c1.9-3.8,4.7-6.9,8.4-9.1
		c3.7-2.3,8-3.4,13-3.4c4.4,0,8.2,0.9,11.5,2.8c3.2,1.8,5.7,4.4,7.4,7.5c1.7,3.2,2.5,6.9,2.5,11c0,2.1-0.2,4.2-0.7,6.1h-33.4
		c0.6,5.1,2.4,8.9,5.3,11.2c3,2.3,6.7,3.5,11.1,3.5c5.4,0,10.3-1.2,14.7-3.7l0.8,9.3c-5.1,2.5-10.6,3.8-16.6,3.8
		C765,88.7,760.1,87.6,756,85.2z M778.1,57c0-2.9-0.8-5.4-2.5-7.4c-1.7-2-4.2-3-7.6-3c-6.5,0-10.5,3.5-12.2,10.4H778.1z"/>
	<path d="M798.2,38.1h10.1l0.6,6.3c1.8-2.2,3.9-4,6.2-5.3c2.3-1.3,4.8-2,7.3-2c0.7,0,1.4,0.1,2.2,0.2l-0.9,11.4
		c-1.1-0.3-2.3-0.5-3.8-0.5c-2.2,0-4.3,0.5-6.2,1.5c-1.9,1-3.3,2.3-4.1,3.7v34.3h-11.4V38.1z"/>
</g>
<g>
	<path d="M571,119l8.8-22.9h3.3l9.4,22.9h-3.5l-2.7-6.9h-9.6l-2.5,6.9H571z M577.6,109.6h7.8l-2.4-6.3c-0.7-1.9-1.3-3.5-1.6-4.8
		c-0.3,1.5-0.7,2.9-1.2,4.4L577.6,109.6z"/>
	<path d="M594.4,119V96.1h2.8V119H594.4z"/>
	<path d="M604.6,119l-5.1-16.6h2.9l2.6,9.6l1,3.6c0-0.2,0.3-1.3,0.9-3.4l2.6-9.7h2.9l2.5,9.6l0.8,3.2l1-3.2l2.8-9.6h2.7l-5.2,16.6
		h-2.9l-2.6-9.9l-0.6-2.8l-3.4,12.8H604.6z"/>
	<path d="M635.5,117c-1,0.9-2,1.5-3,1.9c-1,0.4-2,0.5-3.1,0.5c-1.8,0-3.2-0.4-4.2-1.3c-1-0.9-1.5-2-1.5-3.4c0-0.8,0.2-1.6,0.6-2.2
		c0.4-0.7,0.9-1.2,1.5-1.6c0.6-0.4,1.3-0.7,2-0.9c0.6-0.1,1.4-0.3,2.5-0.4c2.3-0.3,3.9-0.6,5-1c0-0.4,0-0.6,0-0.7
		c0-1.1-0.3-2-0.8-2.4c-0.7-0.6-1.8-1-3.2-1c-1.3,0-2.3,0.2-2.9,0.7c-0.6,0.5-1.1,1.3-1.4,2.5l-2.8-0.4c0.3-1.2,0.7-2.1,1.2-2.9
		c0.6-0.7,1.4-1.3,2.5-1.7c1.1-0.4,2.3-0.6,3.8-0.6c1.4,0,2.6,0.2,3.5,0.5c0.9,0.3,1.5,0.8,2,1.3c0.4,0.5,0.7,1.1,0.9,1.9
		c0.1,0.5,0.1,1.3,0.1,2.6v3.8c0,2.6,0.1,4.3,0.2,5c0.1,0.7,0.4,1.4,0.7,2h-2.9C635.8,118.4,635.6,117.7,635.5,117z M635.3,110.7
		c-1,0.4-2.6,0.8-4.6,1.1c-1.2,0.2-2,0.4-2.5,0.6c-0.5,0.2-0.8,0.5-1.1,0.9c-0.3,0.4-0.4,0.8-0.4,1.3c0,0.8,0.3,1.4,0.9,1.9
		c0.6,0.5,1.4,0.8,2.5,0.8c1.1,0,2-0.2,2.9-0.7c0.8-0.5,1.5-1.1,1.9-1.9c0.3-0.6,0.5-1.6,0.5-2.8V110.7z"/>
	<path d="M642.3,125.4l-0.3-2.6c0.6,0.2,1.2,0.3,1.6,0.3c0.6,0,1.1-0.1,1.5-0.3c0.4-0.2,0.7-0.5,0.9-0.9c0.2-0.3,0.5-1,0.9-2.1
		c0.1-0.2,0.1-0.4,0.3-0.7l-6.3-16.6h3l3.5,9.6c0.4,1.2,0.8,2.5,1.2,3.8c0.3-1.3,0.7-2.6,1.2-3.8l3.5-9.7h2.8l-6.3,16.9
		c-0.7,1.8-1.2,3.1-1.6,3.8c-0.5,0.9-1.1,1.6-1.7,2c-0.6,0.4-1.4,0.6-2.3,0.6C643.6,125.7,643,125.6,642.3,125.4z"/>
	<path d="M657.3,114l2.8-0.4c0.2,1.1,0.6,2,1.3,2.6c0.7,0.6,1.7,0.9,3,0.9c1.3,0,2.3-0.3,2.9-0.8c0.6-0.5,0.9-1.1,0.9-1.9
		c0-0.6-0.3-1.1-0.8-1.5c-0.4-0.3-1.3-0.6-2.9-1c-2.1-0.5-3.5-1-4.3-1.4c-0.8-0.4-1.4-0.9-1.8-1.6c-0.4-0.7-0.6-1.4-0.6-2.2
		c0-0.7,0.2-1.4,0.5-2.1c0.3-0.6,0.8-1.2,1.4-1.6c0.4-0.3,1-0.6,1.8-0.8c0.8-0.2,1.6-0.3,2.4-0.3c1.3,0,2.4,0.2,3.4,0.6
		s1.7,0.9,2.2,1.5s0.8,1.5,1,2.6l-2.8,0.4c-0.1-0.9-0.5-1.5-1.1-2c-0.6-0.5-1.4-0.7-2.5-0.7c-1.3,0-2.2,0.2-2.8,0.6
		c-0.6,0.4-0.8,0.9-0.8,1.5c0,0.4,0.1,0.7,0.3,1c0.2,0.3,0.6,0.6,1.1,0.8c0.3,0.1,1.1,0.3,2.5,0.7c2,0.5,3.4,1,4.2,1.3
		c0.8,0.3,1.4,0.8,1.9,1.5c0.4,0.6,0.7,1.4,0.7,2.4c0,0.9-0.3,1.8-0.8,2.6s-1.3,1.5-2.4,1.9s-2.2,0.7-3.5,0.7
		c-2.2,0-3.8-0.4-4.9-1.3C658.4,117.1,657.7,115.8,657.3,114z"/>
	<path d="M682.2,114l2.8-0.4c0.2,1.1,0.6,2,1.3,2.6c0.7,0.6,1.7,0.9,3,0.9c1.3,0,2.3-0.3,2.9-0.8c0.6-0.5,0.9-1.1,0.9-1.9
		c0-0.6-0.3-1.1-0.8-1.5c-0.4-0.3-1.3-0.6-2.9-1c-2.1-0.5-3.5-1-4.3-1.4c-0.8-0.4-1.4-0.9-1.8-1.6c-0.4-0.7-0.6-1.4-0.6-2.2
		c0-0.7,0.2-1.4,0.5-2.1c0.3-0.6,0.8-1.2,1.4-1.6c0.4-0.3,1-0.6,1.8-0.8c0.8-0.2,1.6-0.3,2.4-0.3c1.3,0,2.4,0.2,3.4,0.6
		s1.7,0.9,2.2,1.5s0.8,1.5,1,2.6l-2.8,0.4c-0.1-0.9-0.5-1.5-1.1-2c-0.6-0.5-1.4-0.7-2.5-0.7c-1.3,0-2.2,0.2-2.8,0.6
		c-0.6,0.4-0.8,0.9-0.8,1.5c0,0.4,0.1,0.7,0.3,1c0.2,0.3,0.6,0.6,1.1,0.8c0.3,0.1,1.1,0.3,2.5,0.7c2,0.5,3.4,1,4.2,1.3
		c0.8,0.3,1.4,0.8,1.9,1.5c0.4,0.6,0.7,1.4,0.7,2.4c0,0.9-0.3,1.8-0.8,2.6s-1.3,1.5-2.4,1.9s-2.2,0.7-3.5,0.7
		c-2.2,0-3.8-0.4-4.9-1.3C683.3,117.1,682.5,115.8,682.2,114z"/>
	<path d="M710.7,113.7l2.9,0.4c-0.5,1.7-1.3,3-2.5,4c-1.2,0.9-2.8,1.4-4.8,1.4c-2.4,0-4.4-0.7-5.8-2.2c-1.4-1.5-2.1-3.6-2.1-6.3
		c0-2.8,0.7-5,2.2-6.5c1.4-1.5,3.3-2.3,5.6-2.3c2.2,0,4,0.8,5.4,2.3c1.4,1.5,2.1,3.6,2.1,6.4c0,0.2,0,0.4,0,0.8h-12.4
		c0.1,1.8,0.6,3.2,1.5,4.2c0.9,1,2.1,1.5,3.5,1.5c1,0,1.9-0.3,2.6-0.8C709.7,115.7,710.3,114.8,710.7,113.7z M701.5,109.1h9.3
		c-0.1-1.4-0.5-2.4-1.1-3.1c-0.9-1.1-2.1-1.6-3.5-1.6c-1.3,0-2.4,0.4-3.3,1.3C702.1,106.5,701.6,107.7,701.5,109.1z"/>
	<path d="M728,117c-1,0.9-2,1.5-3,1.9c-1,0.4-2,0.5-3.1,0.5c-1.8,0-3.2-0.4-4.2-1.3c-1-0.9-1.5-2-1.5-3.4c0-0.8,0.2-1.6,0.6-2.2
		c0.4-0.7,0.9-1.2,1.5-1.6c0.6-0.4,1.3-0.7,2-0.9c0.6-0.1,1.4-0.3,2.5-0.4c2.3-0.3,3.9-0.6,5-1c0-0.4,0-0.6,0-0.7
		c0-1.1-0.3-2-0.8-2.4c-0.7-0.6-1.8-1-3.2-1c-1.3,0-2.3,0.2-2.9,0.7c-0.6,0.5-1.1,1.3-1.4,2.5l-2.8-0.4c0.3-1.2,0.7-2.1,1.2-2.9
		c0.6-0.7,1.4-1.3,2.5-1.7c1.1-0.4,2.3-0.6,3.8-0.6c1.4,0,2.6,0.2,3.5,0.5c0.9,0.3,1.5,0.8,2,1.3c0.4,0.5,0.7,1.1,0.9,1.9
		c0.1,0.5,0.1,1.3,0.1,2.6v3.8c0,2.6,0.1,4.3,0.2,5c0.1,0.7,0.4,1.4,0.7,2h-2.9C728.3,118.4,728.1,117.7,728,117z M727.8,110.7
		c-1,0.4-2.6,0.8-4.6,1.1c-1.2,0.2-2,0.4-2.5,0.6c-0.5,0.2-0.8,0.5-1.1,0.9c-0.3,0.4-0.4,0.8-0.4,1.3c0,0.8,0.3,1.4,0.9,1.9
		c0.6,0.5,1.4,0.8,2.5,0.8c1.1,0,2-0.2,2.9-0.7c0.8-0.5,1.5-1.1,1.9-1.9c0.3-0.6,0.5-1.6,0.5-2.8V110.7z"/>
	<path d="M734.9,119v-16.6h2.5v2.5c0.6-1.2,1.2-2,1.8-2.3s1.1-0.6,1.8-0.6c0.9,0,1.9,0.3,2.9,0.9l-1,2.6c-0.7-0.4-1.4-0.6-2.1-0.6
		c-0.6,0-1.2,0.2-1.7,0.6c-0.5,0.4-0.8,0.9-1,1.5c-0.3,1-0.5,2.1-0.5,3.3v8.7H734.9z"/>
	<path d="M756.4,112.9l2.8,0.4c-0.3,1.9-1.1,3.4-2.3,4.5c-1.2,1.1-2.8,1.6-4.6,1.6c-2.3,0-4.1-0.7-5.5-2.2c-1.4-1.5-2.1-3.6-2.1-6.4
		c0-1.8,0.3-3.4,0.9-4.7s1.5-2.4,2.7-3c1.2-0.7,2.5-1,4-1c1.8,0,3.3,0.5,4.4,1.4c1.1,0.9,1.9,2.2,2.2,3.9l-2.7,0.4
		c-0.3-1.1-0.7-2-1.4-2.5c-0.7-0.6-1.5-0.8-2.4-0.8c-1.4,0-2.6,0.5-3.5,1.5c-0.9,1-1.3,2.6-1.3,4.8c0,2.2,0.4,3.8,1.3,4.9
		c0.9,1,2,1.5,3.3,1.5c1.1,0,2-0.3,2.8-1C755.8,115.4,756.2,114.3,756.4,112.9z"/>
	<path d="M761.6,119V96.1h2.8v8.2c1.3-1.5,3-2.3,5-2.3c1.2,0,2.3,0.2,3.2,0.7s1.6,1.2,1.9,2c0.4,0.9,0.6,2.1,0.6,3.7V119h-2.8v-10.5
		c0-1.4-0.3-2.4-0.9-3.1s-1.5-1-2.6-1c-0.8,0-1.6,0.2-2.4,0.6c-0.7,0.4-1.3,1-1.6,1.8c-0.3,0.7-0.5,1.8-0.5,3.1v9.1H761.6z"/>
	<path d="M779.4,99.3v-3.2h2.8v3.2H779.4z M779.4,119v-16.6h2.8V119H779.4z"/>
	<path d="M786.5,119v-16.6h2.5v2.4c1.2-1.8,3-2.7,5.3-2.7c1,0,1.9,0.2,2.8,0.5c0.8,0.4,1.5,0.8,1.9,1.4c0.4,0.6,0.7,1.3,0.9,2.1
		c0.1,0.5,0.2,1.4,0.2,2.7V119h-2.8v-10.1c0-1.1-0.1-2-0.3-2.6c-0.2-0.6-0.6-1-1.2-1.4c-0.6-0.3-1.2-0.5-2-0.5
		c-1.2,0-2.2,0.4-3.1,1.1c-0.9,0.8-1.3,2.2-1.3,4.3v9.1H786.5z"/>
	<path d="M803.8,120.4l2.7,0.4c0.1,0.8,0.4,1.5,1,1.8c0.7,0.5,1.7,0.8,2.9,0.8c1.3,0,2.3-0.3,3-0.8c0.7-0.5,1.2-1.3,1.4-2.2
		c0.1-0.6,0.2-1.8,0.2-3.6c-1.2,1.4-2.8,2.2-4.6,2.2c-2.3,0-4-0.8-5.3-2.5c-1.3-1.6-1.9-3.6-1.9-5.9c0-1.6,0.3-3,0.9-4.4
		c0.6-1.3,1.4-2.4,2.5-3.1c1.1-0.7,2.4-1.1,3.8-1.1c2,0,3.6,0.8,4.8,2.4v-2h2.6v14.3c0,2.6-0.3,4.4-0.8,5.5
		c-0.5,1.1-1.4,1.9-2.5,2.6s-2.5,0.9-4.2,0.9c-2,0-3.6-0.4-4.8-1.3S803.8,122.2,803.8,120.4z M806.1,110.4c0,2.2,0.4,3.8,1.3,4.8
		c0.9,1,1.9,1.5,3.3,1.5c1.3,0,2.4-0.5,3.3-1.5c0.9-1,1.3-2.6,1.3-4.7c0-2-0.5-3.6-1.4-4.6c-0.9-1-2-1.5-3.3-1.5
		c-1.3,0-2.3,0.5-3.2,1.5S806.1,108.4,806.1,110.4z"/>
	<path d="M822.9,119v-3.2h3.2v3.2H822.9z"/>
</g>
<g>
</g>
<g>
</g>
<g>
</g>
<g>
</g>
<g>
</g>
<g>
</g>
<g>
</g>
<g>
</g>
<g>
</g>
<g>
</g>
<g>
</g>
<g>
</g>
<g>
</g>
<g>
</g>
<g>
</g>
</svg>
