<?xml version="1.0" encoding="utf-8"?>
<!-- Generator: Adobe Illustrator 16.0.0, SVG Export Plug-In . SVG Version: 6.00 Build 0)  -->
<!DOCTYPE svg PUBLIC "-//W3C//DTD SVG 1.1//EN" "http://www.w3.org/Graphics/SVG/1.1/DTD/svg11.dtd">
<svg version="1.1" id="Layer_1" xmlns="http://www.w3.org/2000/svg" xmlns:xlink="http://www.w3.org/1999/xlink" x="0px" y="0px"
	 width="490px" height="490px" viewBox="0 0 490 490" style="enable-background:new 0 0 490 490;" xml:space="preserve">
<path style="fill:#FDBE00;" d="M465.5,454.7c0,6-4.8,10.8-10.8,10.8H35.3c-6,0-10.8-4.8-10.8-10.8V35.3c0-6,4.8-10.8,10.8-10.8
	h419.4c6,0,10.8,4.8,10.8,10.8V454.7z"/>
<path style="fill:none;stroke:#424242;stroke-width:36;stroke-linecap:round;" d="M80.9,411.7l136-136c47.6,46.7,123.9,46.7,171.5,0
	c48.2-47.4,49-124.9,1.6-173.1c-47.4-48.2-124.9-49-173.1-1.6c-48.2,47.4-49,124.9-1.6,173.1 M174.5,338.9l-88,88l-20.8-20.8l88-88"
	/>
</svg>
