<?xml version="1.0" encoding="utf-8"?>
<!-- Generator: Adobe Illustrator 16.0.0, SVG Export Plug-In . SVG Version: 6.00 Build 0)  -->
<!DOCTYPE svg PUBLIC "-//W3C//DTD SVG 1.1//EN" "http://www.w3.org/Graphics/SVG/1.1/DTD/svg11.dtd">
<svg version="1.1" id="Layer_1" xmlns="http://www.w3.org/2000/svg" xmlns:xlink="http://www.w3.org/1999/xlink" x="0px" y="0px"
	 width="109.335px" height="118.003px" viewBox="-13.235 -16.707 109.335 118.003"
	 enable-background="new -13.235 -16.707 109.335 118.003" xml:space="preserve">
<path fill="#708090" d="M96.1,90.349c0,5.972-4.61,10.947-10.143,10.947h-89.05c-5.532,0-10.142-4.976-10.142-10.947V-5.76
	c0-5.971,4.61-10.947,10.142-10.947h89.05c5.532,0,10.143,4.976,10.143,10.947V90.349z"/>
<path fill="none" stroke="#FDBE00" stroke-width="9" stroke-linecap="round" d="M3.626,83.666L34.978,49.83
	c10.934,11.658,28.453,11.658,39.519,0c11.066-11.801,11.329-30.994,0.395-42.937C63.958-5.049,46.175-5.333,35.108,6.467
	C24.043,18.267,23.78,37.46,34.714,49.403 M25.229,65.61L4.942,87.505L0.2,82.388l20.288-21.896"/>
</svg>
